# xmcd
#
# Track frame offsets:
#	150
#	32639
#	54464
#	77769
#	105961
#	140484
#
# Disc length: 2374 seconds
#
# Revision: 1
# Processed by: cddbd v1.5.1PL2 Copyright (c) Steve Scherf et al.
# Submitted via: EasyCDDAExtractor 9.0.0.1
#
DISCID=42094406
DTITLE=Blue Oyster Cult - Chronicle Pavilion Concord CA 05-09-04
DYEAR=2004
DGENRE=Hard Rock
TTITLE0=R  U  Ready To Rock
TTITLE1=Burnin' For You
TTITLE2=Extra Terrestrial Intelligence
TTITLE3=Cities On Flame With Rock And Roll
TTITLE4=Godzilla
TTITLE5=Don't Fear The Reaper
EXTD=
EXTT0=
EXTT1=
EXTT2=
EXTT3=
EXTT4=
EXTT5=
PLAYORDER=
